<svg id="logo" xmlns="http://www.w3.org/2000/svg" width="199.543" height="30" viewBox="0 0 199.543 30">
  <path id="패스_13821" data-name="패스 13821" d="M8.656,11.16,0,26.16H17.325Z" transform="translate(0 3.84)" fill="#fff"/>
  <path id="패스_13822" data-name="패스 13822" d="M0,0H17.325l8.656,15Z" fill="#fff"/>
  <path id="패스_13823" data-name="패스 13823" d="M0,0,25.981,15,17.325,30Z" fill="#fff"/>
  <path id="패스_13824" data-name="패스 13824" d="M97.664,9.138h4.14V3.91h3.468V17.862H101.8V12.069h-4.14V9.152ZM93.174,20.55h12.419v2.876H89.72V16.679h3.454Zm.941-13.36H87.381V4.367H97.744v1.29c0,5.6-4.167,9.261-9.637,10.833L86.79,13.534c4.866-1.089,7.151-3.884,7.325-6.331" transform="translate(29.863 1.345)" fill="#fff"/>
  <path id="패스_13825" data-name="패스 13825" d="M113.747,6.669h3.535V3.9h3.468v9.341h-3.468V9.585h-3.535Zm-8.011,11.116h11.573V16.83H105.736V14.424H120.75v5.659H109.177v.981h12.3v2.419H105.723v-5.7Zm1.183-12.016.027-1.868h3.495V5.768c0,2.513,2.083,4.234,4.7,5.2L113.559,13.6a9.26,9.26,0,0,1-4.866-3.8,9.152,9.152,0,0,1-5.121,4.409l-1.532-2.823c2.621-.86,4.839-2.984,4.892-5.618" transform="translate(35.111 1.342)" fill="#fff"/>
  <path id="패스_13826" data-name="패스 13826" d="M132.793,3.92h3.4V23.409h-3.4Zm-6.841,3.468h-7.11V4.565h10.551V6.729a15.713,15.713,0,0,1-9.261,14.422l-1.841-2.54c5.444-2.782,7.513-6.344,7.648-11.223" transform="translate(40.702 1.349)" fill="#fff"/>
  <path id="패스_13827" data-name="패스 13827" d="M153.549,23.416h-3.374V3.913h3.374ZM139.813,7.395h-5.578V4.572h8.925V6.8c0,.457-.027.874-.054,1.3h2.124V3.9h3.306V23.309h-3.306V16.87h-2.594V13.927h2.594V11.051h-2.581a15.127,15.127,0,0,1-7.07,9.462L133.67,18.04c4.22-2.621,5.995-5.78,6.129-10.645" transform="translate(45.994 1.342)" fill="#fff"/>
  <path id="패스_13828" data-name="패스 13828" d="M97.664,9.138h4.14V3.91h3.468V17.862H101.8V12.069h-4.14V9.152ZM93.174,20.55h12.419v2.876H89.72V16.679h3.454Zm.941-13.36H87.381V4.367H97.744v1.29c0,5.6-4.167,9.261-9.637,10.833L86.79,13.534c4.866-1.089,7.151-3.884,7.325-6.331" transform="translate(29.863 1.345)" fill="#fff"/>
  <path id="패스_13829" data-name="패스 13829" d="M113.747,6.669h3.535V3.9h3.468v9.341h-3.468V9.585h-3.535Zm-8.011,11.116h11.573V16.83H105.736V14.424H120.75v5.659H109.177v.981h12.3v2.419H105.723v-5.7Zm1.183-12.016.027-1.868h3.495V5.768c0,2.513,2.083,4.234,4.7,5.2L113.559,13.6a9.26,9.26,0,0,1-4.866-3.8,9.152,9.152,0,0,1-5.121,4.409l-1.532-2.823c2.621-.86,4.839-2.984,4.892-5.618" transform="translate(35.111 1.342)" fill="#fff"/>
  <path id="패스_13830" data-name="패스 13830" d="M132.793,3.92h3.4V23.409h-3.4Zm-6.841,3.468h-7.11V4.565h10.551V6.729a15.713,15.713,0,0,1-9.261,14.422l-1.841-2.54c5.444-2.782,7.513-6.344,7.648-11.223" transform="translate(40.702 1.349)" fill="#fff"/>
  <path id="패스_13831" data-name="패스 13831" d="M153.549,23.416h-3.374V3.913h3.374ZM139.813,7.395h-5.578V4.572h8.925V6.8c0,.457-.027.874-.054,1.3h2.124V3.9h3.306V23.309h-3.306V16.87h-2.594V13.927h2.594V11.051h-2.581a15.127,15.127,0,0,1-7.07,9.462L133.67,18.04c4.22-2.621,5.995-5.78,6.129-10.645" transform="translate(45.994 1.342)" fill="#fff"/>
  <path id="패스_13832" data-name="패스 13832" d="M60.508,13.53H57.04V20.1H72.981V17.226H60.508Z" transform="translate(19.627 4.655)" fill="#fff"/>
  <path id="패스_13833" data-name="패스 13833" d="M60.508,13.53H57.04V20.1H72.981V17.226H60.508Z" transform="translate(19.627 4.655)" fill="#fff"/>
  <path id="패스_13834" data-name="패스 13834" d="M86.046,3.91v7H84.312v-7H80.965V15.778a16.608,16.608,0,0,1-6.3,1.734V7.4h4.6V4.542H71.18v16.4a26.44,26.44,0,0,0,9.8-2.083v4.516h3.347v-9.22h1.734v9.274h3.374V3.91H86.059Z" transform="translate(24.492 1.345)" fill="#fff"/>
  <path id="패스_13835" data-name="패스 13835" d="M59.181,11.287a2.159,2.159,0,0,1,2.137-2.3,2.12,2.12,0,0,1,2.137,2.3,2.117,2.117,0,0,1-2.137,2.285,2.139,2.139,0,0,1-2.137-2.285m7.406.161a4.321,4.321,0,0,0-.954-2.742h1.935v2.863h2.379v1.21H67.569v2.957h2.379v2.446h3.441V4.1H69.948v4.57H67.6V5.83h-4.57l-1.035-2.5H58.321l1.089,2.5H54.84V8.693h2.03a4.349,4.349,0,0,0-.954,2.742c0,2.89,2.271,4.745,5.323,4.745s5.336-1.855,5.336-4.745" transform="translate(18.87 1.146)" fill="#fff"/>
  <path id="패스_13836" data-name="패스 13836" d="M46.935,20.093H44.448V7.23h2.487c3.79,0,5.565,2.1,5.565,6.277s-1.761,6.586-5.565,6.586M47.056,3.91H40.08v19.5h6.976c6.4,0,9.691-3.347,9.691-9.906s-3.293-9.6-9.691-9.6" transform="translate(13.791 1.345)" fill="#fff"/>
  <path id="패스_13837" data-name="패스 13837" d="M37.235,3.91V14.972l-2.016-3.495H29.265V3.91H24.95v19.5h4.315V15.241h7.97v8.172H41.59V3.91Z" transform="translate(8.585 1.345)" fill="#fff"/>
  <path id="패스_13838" data-name="패스 13838" d="M37.235,3.91V14.972l-2.016-3.495H29.265V3.91H24.95v19.5h4.315V15.241h7.97v8.172H41.59V3.91Z" transform="translate(8.585 1.345)" fill="#fff"/>
</svg>
